<?xml version="1.0" encoding="UTF-8" standalone="no"?>
<svg xmlns="http://www.w3.org/2000/svg" viewBox="0 0 100 100" id="favicon">
  <defs>
    <style>
      .favicon-element {
        fill: #e63946;
        stroke: #e63946;
        stroke-width: 0.5;
      }
      @media (prefers-color-scheme: dark) {
        .favicon-element {
          fill: #ffffff;
          stroke: #ffffff;
        }
      }
    </style>
  </defs>
  
  <!-- Estilização simplificada do logo para favicon -->
  <g id="favicon-icon">
    <path class="favicon-element" d="M50 20c-5,0-8,2-10,5-2,3-2,7-2,10v10c-3-1-5-1-8-1-8,0-15,3-20,8s-8,12-8,20v15c0,8 3,15 8,20s12,8 20,8h40c8,0 15-3 20-8s8-12 8-20v-15c0-8-3-15-8-20-3-3-6-5-10-6v-11c0-3 0-7-2-10-2-3-5-5-10-5h-18zm0 10h18c1,0 2,0 2,2v15h-6v-5c0-1-1-2-2-2s-2,1-2,2v5h-4v-5c0-1-1-2-2-2s-2,1-2,2v5h-4v-15c0-2 1-2 2-2zm-20 24c4,0 8,1 10,4 3,2 4,6 4,10v15c0,4-1,8-4,10-2,3-6,4-10,4h-40c-4,0-8-1-10-4-3-2-4-6-4-10v-15c0-4 1-8 4-10 2-3 6-4 10-4h40z" />
  </g>
</svg>
